<?xml version="1.0" standalone="no"?>
<!DOCTYPE svg PUBLIC "-//W3C//DTD SVG 20010904//EN"
 "http://www.w3.org/TR/2001/REC-SVG-20010904/DTD/svg10.dtd">
<svg version="1.0" xmlns="http://www.w3.org/2000/svg"
 width="512.000000pt" height="512.000000pt" viewBox="0 0 512.000000 512.000000"
 preserveAspectRatio="xMidYMid meet">

<g transform="translate(0.000000,512.000000) scale(0.100000,-0.100000)"
fill="#000000" stroke="none">
<path d="M2845 5031 c-400 -65 -710 -346 -817 -740 -17 -61 -21 -106 -21 -231
0 -137 3 -167 26 -253 l26 -99 -27 -51 c-23 -45 -27 -64 -27 -137 1 -77 4 -91
34 -148 19 -35 48 -74 64 -88 46 -39 119 -72 174 -80 l49 -6 18 -68 c21 -82
73 -172 139 -240 31 -33 44 -52 35 -54 -7 -3 -51 -16 -98 -30 -47 -14 -137
-50 -199 -81 -377 -185 -651 -496 -782 -886 -57 -170 -70 -261 -76 -524 -6
-258 3 -340 46 -456 62 -163 221 -328 384 -398 l47 -20 0 -101 0 -100 -880 0
-880 0 0 -80 0 -80 2480 0 2480 0 0 80 0 80 -400 0 -400 0 0 100 0 100 56 25
c160 71 314 233 375 394 43 115 52 198 46 451 -7 354 -53 544 -193 792 -203
361 -536 615 -963 734 -9 3 4 22 35 54 67 69 119 158 140 240 l18 68 49 6 c55
8 128 41 174 80 16 14 45 53 64 88 30 56 33 72 34 143 0 67 -5 90 -27 138
l-28 58 27 97 c36 133 39 342 5 475 -90 361 -356 630 -717 727 -65 18 -115 23
-260 25 -99 2 -202 0 -230 -4z m375 -161 c417 -66 724 -446 697 -860 -3 -47
-11 -109 -18 -138 -11 -46 -15 -53 -33 -48 -12 3 -40 8 -63 12 l-43 7 0 198 0
199 -80 0 -80 0 0 -70 c0 -45 -4 -70 -11 -70 -7 0 -31 19 -54 43 -46 46 -80
123 -91 206 l-7 51 -78 0 -79 0 0 -33 c0 -51 37 -185 65 -235 14 -24 25 -46
25 -48 0 -10 -54 -2 -88 12 -80 33 -134 114 -154 234 l-12 70 -78 0 -78 0 0
-33 c0 -51 37 -185 65 -235 14 -24 25 -46 25 -48 0 -10 -54 -2 -88 12 -80 33
-134 114 -154 234 l-12 70 -78 0 -78 0 0 -40 c0 -27 -4 -40 -14 -40 -32 0
-156 -73 -196 -116 -68 -74 -102 -159 -108 -269 l-5 -93 -41 -6 c-22 -4 -50
-9 -62 -12 -18 -5 -22 2 -33 48 -19 82 -25 226 -12 304 60 353 314 618 661
689 79 16 301 19 390 5z m-510 -747 c35 -67 110 -140 178 -171 l57 -27 328 -3
328 -3 -3 -368 -3 -367 -37 -76 c-45 -91 -103 -147 -196 -191 l-67 -32 -255 0
-255 0 -65 31 c-95 46 -153 101 -197 192 l-38 76 -3 385 c-2 287 0 398 9 431
20 72 111 153 189 169 3 1 16 -20 30 -46z m-390 -603 c0 -177 1 -173 -63 -146
-125 52 -126 238 -2 292 66 29 65 31 65 -146z m1529 132 c49 -36 66 -70 66
-132 0 -44 -5 -66 -21 -86 -28 -39 -63 -63 -101 -70 l-33 -6 0 162 0 163 33
-7 c17 -3 43 -14 56 -24z m-569 -988 c0 -31 -5 -75 -12 -98 -16 -55 -99 -138
-154 -154 -94 -28 -169 -8 -239 63 -57 56 -75 102 -75 189 l0 56 240 0 240 0
0 -56z m-601 -189 c41 -90 99 -148 189 -193 72 -35 81 -37 172 -37 91 0 100 2
172 37 136 68 215 186 225 337 l6 79 61 -14 c461 -106 842 -455 990 -907 52
-158 61 -232 61 -507 0 -283 -3 -303 -71 -426 -39 -71 -127 -163 -192 -201
-65 -38 -160 -71 -231 -79 l-61 -7 0 166 0 166 53 24 c66 30 118 81 155 150
l27 52 3 323 3 322 -80 0 -80 0 -3 -308 -3 -309 -29 -37 c-16 -21 -43 -44 -60
-51 -30 -13 -32 -12 -91 44 -87 84 -114 96 -212 96 l-83 0 0 323 0 322 -560 0
-560 0 0 -72 0 -73 -132 132 c-73 72 -149 139 -168 149 -52 26 -153 24 -206
-3 -54 -29 -109 -93 -123 -146 -9 -30 -11 -141 -9 -377 l3 -335 34 -63 c38
-70 69 -100 145 -140 50 -26 57 -27 254 -30 l202 -4 0 -160 0 -160 -257 4
c-291 5 -324 12 -443 89 -130 84 -225 226 -251 372 -18 108 -6 498 19 612 114
515 496 913 997 1040 l90 23 7 -80 c5 -57 15 -98 37 -143z m-382 -817 l183
-182 0 -116 0 -115 -240 240 c-215 216 -240 244 -240 273 0 44 38 82 81 82 29
0 54 -21 216 -182z m1143 -298 c0 -289 -2 -320 -16 -320 -77 0 -189 -88 -212
-166 -16 -53 -16 -255 0 -308 23 -78 135 -166 212 -166 13 0 16 -13 16 -80 l0
-80 -400 0 -400 0 0 720 0 720 400 0 400 0 0 -320z m-1132 -318 c-181 -3 -207
0 -249 35 -52 44 -59 74 -59 260 l0 168 230 -230 230 -230 -152 -3z m1473 -59
l59 -56 0 -184 0 -183 -215 0 c-216 0 -216 0 -240 25 -24 23 -25 31 -25 135 0
104 1 112 25 135 22 23 32 25 120 25 l95 0 0 55 c0 70 29 105 85 105 31 0 46
-9 96 -57z m-1301 -663 l0 -80 -240 0 -240 0 0 80 0 80 240 0 240 0 0 -80z
m1600 0 l0 -80 -240 0 -240 0 0 80 0 80 240 0 240 0 0 -80z"/>
<path d="M2665 3735 c-16 -15 -25 -36 -25 -55 0 -19 9 -40 25 -55 15 -16 36
-25 55 -25 19 0 40 9 55 25 16 15 25 36 25 55 0 19 -9 40 -25 55 -15 16 -36
25 -55 25 -19 0 -40 -9 -55 -25z"/>
<path d="M3305 3735 c-16 -15 -25 -36 -25 -55 0 -19 9 -40 25 -55 15 -16 36
-25 55 -25 19 0 40 9 55 25 16 15 25 36 25 55 0 19 -9 40 -25 55 -15 16 -36
25 -55 25 -19 0 -40 -9 -55 -25z"/>
<path d="M3200 3265 c0 -9 -11 -27 -25 -40 -24 -25 -27 -25 -200 -25 l-175 0
0 -80 0 -80 176 0 c110 0 192 5 218 12 55 16 138 99 154 154 22 74 22 74 -68
74 -65 0 -80 -3 -80 -15z"/>
<path d="M4546 5030 c-63 -16 -153 -70 -197 -117 -66 -71 -101 -158 -107 -264
l-5 -89 82 0 81 0 0 56 c0 87 18 133 75 189 51 52 102 75 165 75 63 0 114 -23
165 -75 70 -70 91 -146 64 -236 -18 -57 -59 -101 -190 -200 l-119 -90 0 -259
0 -260 80 0 80 0 0 220 0 219 98 75 c117 88 145 119 186 206 28 59 31 74 31
161 0 90 -2 99 -37 171 -68 136 -188 217 -336 224 -42 2 -94 -1 -116 -6z"/>
<path d="M4560 3667 c-49 -16 -133 -102 -148 -153 -28 -94 -8 -169 63 -239 51
-52 102 -75 165 -75 63 0 114 23 165 75 98 97 101 222 8 325 -65 72 -158 97
-253 67z m135 -172 c16 -15 25 -36 25 -55 0 -19 -9 -40 -25 -55 -15 -16 -36
-25 -55 -25 -19 0 -40 9 -55 25 -16 15 -25 36 -25 55 0 19 9 40 25 55 15 16
36 25 55 25 19 0 40 -9 55 -25z"/>
<path d="M349 3507 c-145 -40 -251 -168 -266 -319 -5 -56 2 -94 52 -299 32
-129 68 -256 82 -284 34 -70 105 -138 177 -172 57 -26 71 -28 214 -31 l153 -4
104 -138 c85 -113 112 -142 150 -160 85 -41 180 -14 236 68 20 30 24 50 27
133 l4 97 91 4 c114 5 192 37 260 106 67 69 88 122 152 381 51 207 57 242 51
300 -12 129 -93 243 -214 299 l-57 27 -585 2 c-443 2 -596 -1 -631 -10z m1206
-166 c71 -33 125 -111 125 -181 0 -17 -25 -132 -56 -255 -83 -331 -90 -338
-346 -343 l-158 -3 0 -155 c0 -85 -2 -154 -4 -154 -2 0 -11 -3 -19 -6 -11 -4
-50 41 -136 155 l-121 160 -177 3 c-280 5 -283 8 -367 343 -31 123 -56 238
-56 255 0 70 54 148 125 181 37 17 76 19 595 19 519 0 558 -2 595 -19z"/>
<path d="M480 3120 l0 -80 480 0 480 0 0 80 0 80 -480 0 -480 0 0 -80z"/>
<path d="M480 2800 l0 -80 480 0 480 0 0 80 0 80 -480 0 -480 0 0 -80z"/>
</g>
</svg>
