<?xml version="1.0" standalone="no"?>
<!DOCTYPE svg PUBLIC "-//W3C//DTD SVG 20010904//EN"
 "http://www.w3.org/TR/2001/REC-SVG-20010904/DTD/svg10.dtd">
<svg version="1.0" xmlns="http://www.w3.org/2000/svg"
 width="512.000000pt" height="512.000000pt" viewBox="0 0 512.000000 512.000000"
 preserveAspectRatio="xMidYMid meet">

<g transform="translate(0.000000,512.000000) scale(0.100000,-0.100000)"
fill="#000000" stroke="none">
<path d="M0 4135 l0 -985 75 0 75 0 0 910 0 910 670 0 670 0 0 75 0 75 -745 0
-745 0 0 -985z"/>
<path d="M1640 5045 l0 -75 980 0 980 0 0 -585 0 -585 75 0 75 0 0 660 0 660
-1055 0 -1055 0 0 -75z"/>
<path d="M530 4245 l0 -75 250 0 251 0 -3 73 -3 72 -247 3 -248 2 0 -75z"/>
<path d="M1180 4245 l0 -75 450 0 451 0 -3 73 -3 72 -447 3 -448 2 0 -75z"/>
<path d="M2230 4245 l0 -75 250 0 250 0 0 75 0 75 -250 0 -250 0 0 -75z"/>
<path d="M2880 4245 l0 -75 175 0 175 0 0 75 0 75 -175 0 -175 0 0 -75z"/>
<path d="M4095 3923 c-45 -14 -78 -43 -340 -304 l-291 -289 -94 5 c-52 3 -248
10 -435 15 l-339 10 -301 -142 c-165 -78 -301 -142 -302 -143 -1 0 -26 -172
-55 -381 l-54 -381 28 -224 c33 -269 33 -277 9 -303 -10 -12 -60 -147 -111
-301 -51 -154 -95 -285 -97 -292 -3 -7 125 31 284 84 262 87 292 99 328 134
23 22 44 39 48 39 4 0 25 -13 48 -29 68 -50 119 -56 397 -44 l247 11 257 71
257 72 249 140 249 139 162 0 161 0 0 75 0 75 -182 0 -181 0 -257 -144 -257
-144 -239 -67 c-236 -67 -241 -68 -404 -76 -288 -14 -332 -12 -371 14 -69 47
-99 134 -70 209 11 30 59 78 91 90 14 6 126 14 250 19 l225 9 135 49 135 48
98 124 c54 68 116 148 139 177 l41 53 -79 80 -79 79 242 242 242 242 101 -47
102 -47 519 0 519 0 0 75 0 75 -501 0 -501 0 -59 26 c-33 15 -59 30 -59 33 0
3 95 101 211 216 116 116 219 227 230 247 24 47 26 146 3 191 -9 18 -48 65
-88 105 -56 57 -82 76 -120 87 -60 18 -77 18 -141 -2z m156 -190 c51 -48 59
-61 59 -92 0 -32 -9 -45 -70 -106 l-70 -70 -88 88 -87 88 76 74 c48 48 85 75
98 75 14 0 46 -23 82 -57z m-271 -288 l85 -85 -675 -675 -675 -675 -50 0 c-49
0 -149 -14 -186 -25 -17 -6 -18 -1 -13 62 l6 68 707 708 c388 389 708 707 711
707 3 0 44 -38 90 -85z m-906 -251 l248 -7 -180 -180 -180 -180 -263 -44
c-145 -24 -267 -47 -270 -51 -14 -15 -99 -494 -104 -587 -3 -55 -13 -121 -21
-147 -18 -56 -82 -132 -135 -158 -76 -39 -71 -49 -104 226 l-29 246 43 311
c47 342 50 357 61 357 8 0 306 140 425 200 57 29 64 30 160 25 55 -2 212 -7
349 -11z m-429 -684 c-71 -71 -130 -128 -132 -127 -1 2 7 53 19 114 l22 111
85 15 c151 26 150 32 6 -113z m696 -214 c-4 -6 -42 -54 -83 -107 l-76 -95
-104 -37 c-57 -20 -113 -37 -124 -37 -13 0 37 56 156 175 l174 175 33 -32 c20
-19 29 -36 24 -42z m-1095 -752 c-35 -36 -59 -48 -165 -83 -69 -22 -127 -39
-129 -36 -2 2 13 55 34 117 l39 113 58 6 c59 7 137 32 172 56 19 13 20 11 26
-59 l7 -73 -42 -41z"/>
<path d="M530 3745 l0 -75 175 0 176 0 -3 73 -3 72 -172 3 -173 2 0 -75z"/>
<path d="M1030 3745 l0 -75 250 0 251 0 -3 73 -3 72 -247 3 -248 2 0 -75z"/>
<path d="M1680 3745 l0 -75 450 0 451 0 -3 73 -3 72 -447 3 -448 2 0 -75z"/>
<path d="M2730 3745 l0 -75 250 0 250 0 0 75 0 75 -250 0 -250 0 0 -75z"/>
<path d="M530 3245 l0 -75 300 0 301 0 -3 73 -3 72 -297 3 -298 2 0 -75z"/>
<path d="M1280 3245 l0 -75 175 0 176 0 -3 73 -3 72 -172 3 -173 2 0 -75z"/>
<path d="M0 1712 c0 -1402 -2 -1339 56 -1454 15 -29 51 -78 82 -110 99 -104
234 -152 407 -146 l80 3 3 73 3 72 -88 0 c-101 0 -186 19 -241 54 -61 38 -116
109 -136 174 l-7 22 1310 0 1311 0 0 75 0 75 -1315 0 -1315 0 0 1225 0 1225
-75 0 -75 0 0 -1288z"/>
<path d="M530 2745 l0 -75 175 0 176 0 -3 73 -3 72 -172 3 -173 2 0 -75z"/>
<path d="M1030 2745 l0 -75 300 0 301 0 -3 73 -3 72 -297 3 -298 2 0 -75z"/>
<path d="M530 2235 l0 -75 298 2 297 3 3 73 3 72 -301 0 -300 0 0 -75z"/>
<path d="M1280 2235 l0 -75 173 2 172 3 3 73 3 72 -176 0 -175 0 0 -75z"/>
<path d="M4550 1885 l0 -75 285 0 285 0 0 75 0 75 -285 0 -285 0 0 -75z"/>
<path d="M530 1735 l0 -75 173 2 172 3 3 73 3 72 -176 0 -175 0 0 -75z"/>
<path d="M1030 1735 l0 -75 298 2 297 3 3 73 3 72 -301 0 -300 0 0 -75z"/>
<path d="M3602 893 c3 -492 3 -499 26 -563 13 -36 41 -91 63 -122 l39 -58
-1475 0 -1475 0 0 -75 0 -75 1697 2 1698 3 57 22 c129 49 221 135 282 263 l31
65 3 397 3 398 -398 2 -398 3 -3 118 -3 117 -75 0 -75 0 3 -497z m796 -200
c-3 -299 -4 -309 -26 -355 -32 -64 -96 -126 -162 -157 -43 -20 -71 -25 -130
-26 -135 0 -243 72 -302 201 -22 47 -23 62 -26 347 l-4 297 327 0 326 0 -3
-307z"/>
<path d="M530 1235 l0 -75 328 2 327 3 3 73 3 72 -331 0 -330 0 0 -75z"/>
<path d="M1340 1235 l0 -76 73 3 72 3 3 73 3 72 -76 0 -75 0 0 -75z"/>
<path d="M2940 475 l0 -75 75 0 75 0 0 75 0 75 -75 0 -75 0 0 -75z"/>
<path d="M3240 475 l0 -75 75 0 75 0 0 75 0 75 -75 0 -75 0 0 -75z"/>
</g>
</svg>
