<?xml version="1.0" standalone="no"?>
<!DOCTYPE svg PUBLIC "-//W3C//DTD SVG 20010904//EN"
 "http://www.w3.org/TR/2001/REC-SVG-20010904/DTD/svg10.dtd">
<svg version="1.0" xmlns="http://www.w3.org/2000/svg"
 width="512.000000pt" height="512.000000pt" viewBox="0 0 512.000000 512.000000"
 preserveAspectRatio="xMidYMid meet">

<g transform="translate(0.000000,512.000000) scale(0.100000,-0.100000)"
fill="#000000" stroke="none">
<path d="M2592 5103 c-11 -10 -48 -70 -82 -133 -34 -63 -66 -119 -71 -125 -6
-5 -67 -42 -137 -80 -98 -55 -129 -76 -136 -98 -20 -55 -1 -76 136 -152 70
-38 130 -74 135 -78 4 -5 40 -65 78 -135 76 -137 97 -156 152 -136 22 7 44 38
98 136 38 70 74 130 78 135 5 4 65 40 135 78 137 76 156 97 136 152 -7 22 -38
43 -136 98 -70 38 -131 75 -137 80 -5 6 -39 65 -76 133 -37 67 -75 127 -85
132 -28 15 -66 12 -88 -7z m93 -312 c34 -64 42 -72 106 -106 38 -20 69 -40 69
-45 0 -5 -31 -25 -69 -45 -64 -34 -72 -42 -106 -106 -20 -38 -40 -69 -45 -69
-5 0 -25 31 -45 69 -33 62 -42 71 -105 106 -39 21 -70 41 -70 45 0 4 31 24 70
45 63 35 72 44 105 106 20 38 40 69 45 69 5 0 25 -31 45 -69z"/>
<path d="M450 4951 c-86 -28 -141 -75 -181 -151 -35 -66 -33 -176 3 -245 53
-101 134 -150 248 -150 114 0 195 49 248 150 22 41 26 63 26 125 0 116 -50
198 -154 250 -48 24 -147 35 -190 21z m154 -190 c26 -27 31 -39 31 -81 0 -43
-5 -54 -33 -82 -28 -28 -39 -33 -82 -33 -43 0 -54 5 -82 33 -28 28 -33 39 -33
81 0 52 25 92 70 112 37 16 96 3 129 -30z"/>
<path d="M1200 4720 l0 -80 80 0 80 0 0 80 0 80 -80 0 -80 0 0 -80z"/>
<path d="M4240 4720 l0 -80 80 0 80 0 0 80 0 80 -80 0 -80 0 0 -80z"/>
<path d="M3630 4405 c-319 -46 -643 -164 -904 -330 l-90 -56 -155 74 c-447
214 -792 290 -1373 304 l-256 6 -26 -26 c-24 -24 -26 -33 -26 -106 l0 -80 -72
25 c-90 30 -113 30 -143 -1 l-25 -24 0 -447 0 -447 -280 -554 -280 -553 0
-1095 0 -1095 80 0 80 0 0 1063 0 1063 464 383 c256 210 468 383 473 384 16 4
14 -193 -3 -252 -36 -124 -63 -160 -306 -388 -260 -245 -243 -215 -236 -414 3
-107 4 -112 31 -135 16 -13 40 -24 55 -25 77 -2 166 -64 208 -145 67 -126 78
-287 38 -525 l-6 -35 65 -12 c35 -7 71 -12 79 -12 16 0 32 90 44 252 l7 88 68
0 69 0 0 -30 c0 -65 -22 -229 -41 -305 -45 -179 -147 -320 -274 -379 -102 -48
-95 -23 -95 -318 l0 -258 80 0 80 0 0 213 0 212 49 27 c204 115 331 375 356
731 l7 97 33 0 c61 0 279 -42 399 -76 140 -40 342 -119 441 -172 l70 -37 3
-55 c3 -76 9 -96 34 -120 21 -19 34 -20 290 -20 l269 0 24 25 c22 21 25 33 25
99 l0 76 58 45 c76 60 295 168 404 199 98 28 246 56 296 56 32 0 32 0 32 -50
0 -28 5 -94 11 -147 34 -305 157 -540 338 -643 l60 -35 1 -212 0 -213 80 0 80
0 0 251 c0 147 -4 258 -10 269 -5 10 -43 34 -82 53 -133 64 -220 179 -271 357
-27 92 -47 231 -47 324 l0 59 46 -7 c26 -3 57 -6 70 -6 23 0 24 -3 24 -77 0
-77 23 -259 34 -270 5 -5 133 15 147 23 3 2 0 38 -7 81 -16 95 -18 271 -4 343
14 71 54 157 93 199 35 37 119 81 155 81 28 0 62 17 79 39 8 11 12 63 13 164
l0 147 -32 35 c-18 18 -118 113 -223 210 -199 185 -240 235 -275 339 -24 71
-35 194 -23 250 l8 38 472 -388 472 -389 1 -1062 0 -1063 80 0 80 0 0 1090 0
1090 -280 560 -280 560 0 445 0 446 -25 24 c-30 31 -53 31 -143 1 l-72 -25 0
78 c0 95 -14 118 -80 132 -79 17 -504 20 -610 4z m493 -151 l37 -7 0 -629 0
-629 -80 66 c-48 39 -90 65 -104 65 -59 0 -102 -76 -126 -220 -25 -151 9 -337
85 -465 20 -33 79 -103 131 -155 l94 -95 0 -205 0 -205 -191 3 c-106 2 -236
-1 -292 -8 -296 -34 -603 -135 -859 -282 l-98 -56 0 1224 0 1225 78 50 c244
159 576 280 868 318 81 10 402 14 457 5z m-2628 -38 c331 -38 607 -119 918
-269 l147 -70 0 -1230 c0 -979 -3 -1228 -12 -1224 -7 3 -71 32 -143 65 -250
115 -515 193 -780 231 -164 24 -402 41 -556 41 l-109 0 0 216 0 216 98 97 c84
81 105 109 140 181 23 47 48 114 57 150 41 177 -4 457 -80 492 -35 16 -65 4
-139 -57 -37 -30 -70 -55 -72 -55 -2 0 -4 280 -4 622 l0 621 203 -6 c111 -4
261 -13 332 -21z m-697 -771 c2 -430 -1 -581 -10 -592 -6 -8 -24 -23 -40 -34
l-28 -20 0 625 0 625 38 -13 37 -13 3 -578z m3598 -643 c-3 -2 -21 9 -40 25
l-36 28 2 584 3 584 35 12 35 12 3 -620 c1 -341 0 -622 -2 -625z m-3836 -6 l0
-133 -107 -88 c-60 -49 -114 -93 -122 -99 -8 -6 39 94 105 221 65 128 120 233
122 233 1 0 2 -60 2 -134z m4228 -321 c-2 -1 -54 40 -115 92 l-113 94 1 137 0
137 115 -229 c63 -125 114 -229 112 -231z m-3990 -671 c-2 -1 -20 3 -41 9
l-37 12 0 70 c0 66 1 71 38 108 l37 38 3 -117 c1 -64 1 -118 0 -120z m3600 92
l-3 -69 -37 -13 -38 -13 0 122 0 121 40 -39 c41 -40 41 -40 38 -109z m-290
-285 c12 -7 11 -13 -1 -37 -8 -16 -20 -48 -26 -71 l-12 -43 -132 6 c-296 14
-569 -44 -827 -177 -209 -107 -310 -204 -310 -296 l0 -33 -160 0 -160 0 0 28
c-1 43 -35 107 -72 136 -73 55 -349 172 -528 224 -234 68 -389 93 -639 101
l-193 6 -18 55 c-10 30 -21 63 -25 73 -6 15 1 17 81 17 130 0 359 -18 517 -40
301 -42 597 -140 896 -296 68 -35 132 -64 143 -64 12 0 67 31 124 69 266 177
572 293 883 336 108 15 439 19 459 6z"/>
<path d="M3620 3829 c-260 -31 -566 -124 -736 -224 l-44 -26 30 -52 c17 -29
35 -58 39 -66 7 -12 28 -6 117 36 268 126 575 191 852 182 l110 -4 11 74 c6
41 9 77 5 80 -10 10 -303 10 -384 0z"/>
<path d="M3760 3360 l0 -80 80 0 80 0 0 80 0 80 -80 0 -80 0 0 -80z"/>
<path d="M3685 2164 c-16 -2 -72 -9 -124 -15 -198 -23 -432 -94 -624 -191
l-98 -49 32 -57 c18 -31 36 -62 41 -68 5 -8 39 4 108 38 255 125 619 201 876
185 l92 -6 11 76 c6 42 9 78 6 81 -6 6 -280 12 -320 6z"/>
<path d="M1216 3763 c-30 -5 -30 -8 -10 -129 l6 -31 97 5 c268 13 616 -61 874
-186 l98 -48 39 68 38 67 -41 24 c-190 110 -487 199 -756 226 -100 11 -286 12
-345 4z"/>
<path d="M1216 3363 c-30 -5 -30 -8 -10 -129 l6 -31 97 5 c268 13 616 -61 874
-186 l98 -48 39 68 38 67 -41 24 c-190 110 -487 199 -756 226 -100 11 -286 12
-345 4z"/>
<path d="M0 3140 l0 -80 80 0 80 0 0 80 0 80 -80 0 -80 0 0 -80z"/>
<path d="M1730 1031 c-86 -28 -141 -75 -181 -151 -35 -66 -33 -176 3 -245 53
-101 134 -150 248 -150 114 0 195 49 248 150 22 41 26 63 26 125 0 116 -50
198 -154 250 -48 24 -147 35 -190 21z m154 -190 c26 -27 31 -39 31 -81 0 -43
-5 -54 -33 -82 -28 -28 -39 -33 -82 -33 -43 0 -54 5 -82 33 -28 28 -33 39 -33
81 0 52 25 92 70 112 37 16 96 3 129 -30z"/>
<path d="M3392 943 c-11 -10 -48 -70 -82 -133 -34 -63 -66 -119 -71 -125 -6
-5 -67 -42 -137 -80 -98 -55 -129 -76 -136 -98 -20 -55 -1 -76 136 -152 70
-38 130 -74 135 -78 4 -5 40 -65 78 -135 54 -98 76 -129 98 -136 55 -20 76 -1
152 136 38 70 74 130 78 135 5 4 65 40 135 78 137 76 156 97 136 152 -7 22
-38 43 -136 98 -70 38 -131 75 -137 80 -5 6 -39 65 -76 133 -37 67 -75 127
-85 132 -28 15 -66 12 -88 -7z m93 -312 c34 -64 42 -72 106 -106 38 -20 69
-40 69 -45 0 -5 -31 -25 -69 -45 -64 -34 -72 -42 -106 -106 -20 -38 -40 -69
-45 -69 -5 0 -25 31 -45 69 -33 62 -42 71 -105 106 -39 21 -70 41 -70 45 0 4
31 24 70 45 63 35 72 44 105 106 20 38 40 69 45 69 5 0 25 -31 45 -69z"/>
<path d="M2320 400 l0 -80 80 0 80 0 0 80 0 80 -80 0 -80 0 0 -80z"/>
</g>
</svg>
